<?xml version="1.0" encoding="UTF-8" standalone="no"?>
<svg
   xmlns:dc="http://purl.org/dc/elements/1.1/"
   xmlns:cc="http://creativecommons.org/ns#"
   xmlns:rdf="http://www.w3.org/1999/02/22-rdf-syntax-ns#"
   xmlns:svg="http://www.w3.org/2000/svg"
   xmlns="http://www.w3.org/2000/svg"
   id="svg8"
   version="1.1"
   viewBox="0 0 60 60">
  <metadata
     id="metadata14">
    <rdf:RDF>
      <cc:Work
         rdf:about="">
        <dc:format>image/svg+xml</dc:format>
        <dc:type
           rdf:resource="http://purl.org/dc/dcmitype/StillImage" />
        <dc:title></dc:title>
      </cc:Work>
    </rdf:RDF>
  </metadata>
  <defs
     id="defs12" />
  <g
     style="fill:#2b6a94;fill-opacity:1"
     id="g6"
     fill-rule="evenodd"
     fill="none">
    <path
       style="fill:#2b6a94;fill-opacity:1"
       id="path2"
       d="M0 0h60v60H0z"
       stroke-width=".994"
       fill="#f60" />
  </g>
  <g
     style="fill:#ffffff;fill-opacity:1"
     transform="matrix(0.94117632,0,0,0.94117632,3.0611309,-0.24936675)"
     id="g831">
    <path
       id="path2-9"
       d="m 40.614108,35.983071 5.98447,-5.985404 c 4.365698,-4.364736 4.365698,-11.468354 0,-15.833101 -4.36522,-4.3661495 -11.468389,-4.3661495 -15.833615,0 l -8.636472,8.636458 c -4.365693,4.364736 -4.365693,11.468357 0,15.833094 0.644586,0.645053 1.350086,1.191883 2.096668,1.646159 l 4.623528,-4.623986 c -0.880694,-0.210613 -1.716056,-0.65497 -2.401725,-1.34016 -1.984276,-1.984282 -1.984276,-5.213324 0,-7.19712 l 8.636477,-8.636448 c 1.984274,-1.984284 5.213335,-1.984284 7.19714,0 1.984279,1.984271 1.984279,5.21285 0,7.197118 l -2.53725,2.537717 c 1.0455,2.460741 1.3345,5.16704 0.870779,7.765673 z"
       style="stroke-width:0.47222143;fill:#ffffff;fill-opacity:1" />
    <path
       id="path6"
       d="m 16.631353,28.297201 -5.984472,5.98493 c -4.3661686,4.365216 -4.3661686,11.468353 0,15.833566 4.36475,4.365685 11.468392,4.365685 15.833611,0 l 8.636,-8.636451 c 4.365697,-4.365212 4.365221,-11.468353 0,-15.833095 -0.644111,-0.645052 -1.349611,-1.191877 -2.096194,-1.646163 l -4.623525,4.623991 c 0.88022,0.21108 1.715584,0.654496 2.40172,1.340164 1.984281,1.98427 1.984281,5.212847 0,7.197118 l -8.636942,8.636446 c -1.984279,1.984276 -5.212864,1.984276 -7.197142,0 -1.984278,-1.98427 -1.984278,-5.212844 0,-7.19711 l 2.537722,-2.53725 c -1.045973,-2.460751 -1.334973,-5.167515 -0.870778,-7.766146 z"
       style="stroke-width:0.47222143;fill:#ffffff;fill-opacity:1" />
  </g>
</svg>
