<svg xmlns="http://www.w3.org/2000/svg" viewBox="0 0 128 128"><path fill="#BD081C" d="M0 0h128v128H0z"/><path fill="#FFF" d="M91.745 51.745c0 16.155-8.975 28.22-22.215 28.22-4.444 0-8.625-2.405-10.06-5.135 0 0-2.39 9.49-2.895 11.32-1.78 6.465-7.025 12.94-7.43 13.475-.285.365-.915.25-.98-.234-.115-.826-1.45-8.99.125-15.65.79-3.34 5.295-22.436 5.295-22.436s-1.315-2.63-1.315-6.515c0-6.103 3.54-10.657 7.94-10.657 3.745 0 5.556 2.81 5.556 6.18 0 3.767-2.396 9.397-3.636 14.612-1.035 4.37 2.19 7.93 6.5 7.93 7.8 0 13.05-10.02 13.05-21.89 0-9.023-6.074-15.78-17.13-15.78-12.485 0-20.27 9.315-20.27 19.72 0 3.585 1.06 6.117 2.715 8.072.76.9.87 1.263.595 2.298-.205.76-.65 2.58-.845 3.305-.27 1.04-1.115 1.415-2.06 1.03-5.75-2.35-8.43-8.65-8.43-15.73 0-11.697 9.865-25.72 29.425-25.72 15.725 0 26.065 11.373 26.065 23.585z"/></svg>
