<svg xmlns="http://www.w3.org/2000/svg" viewBox="0 0 32 32"><style type="text/css">  
	.st0{fill-rule:evenodd;clip-rule:evenodd;fill:#157EFB;}
	.st1{fill-rule:evenodd;clip-rule:evenodd;fill:#FFFFFF;}
</style><rect class="st0" width="32" height="32"/><path class="st1" d="M6.5 10.5v-6c0-1.1 0.9-2 2-2h15c1.1 0 2 0.9 2 2v6H6.5L6.5 10.5zM5.5 26.5h-1c-1.7 0-3-1.3-3-3v-9c0-1.7 1.3-3 3-3h23c1.7 0 3 1.3 3 3v9c0 1.7-1.3 3-3 3h-1v-8h-21V26.5L5.5 26.5 5.5 26.5zM6.5 19.5v8c0 1.1 0.9 2 2 2h15c1.1 0 2-0.9 2-2v-8H6.5L6.5 19.5zM24.5 16.5c0.6 0 1-0.4 1-1s-0.4-1-1-1 -1 0.4-1 1S23.9 16.5 24.5 16.5L24.5 16.5zM8.5 22.5v1h15v-1H8.5L8.5 22.5zM8.5 25.5v1h15v-1H8.5L8.5 25.5z"/></svg>