<svg xmlns="http://www.w3.org/2000/svg" viewBox="0 0 128 128"><path fill="#3B445C" d="M0 0h128v128H0z"/><path fill="#FFF" d="M73.625 102.4c7.685 0 15.299-2.736 17.818-6.05l.504-.664-4.763-14.12a.32.32 0 0 0-.305-.218H76.238a.317.317 0 0 1-.311-.232c-.124-.47-.198-1.046-.21-1.758V62.091c0-.178.144-.321.322-.321h12.52a.322.322 0 0 0 .322-.322V43.782a.322.322 0 0 0-.322-.321H76.092a.32.32 0 0 1-.32-.321V25.92a.322.322 0 0 0-.323-.32H53.587a3.714 3.714 0 0 0-3.631 3.31c-1.092 8.887-5.168 14.22-12.829 16.78l-.855.285a.322.322 0 0 0-.22.304v15.17c0 .177.145.32.322.32h7.824v18.682c0 14.914 10.33 21.95 29.427 21.95zm14.643-7.209c-2.398 2.307-7.32 4.02-12.037 4.099-.178.003-.352.005-.528.005h-.002C60.186 99.294 56.046 87.45 56.046 80.45V58.945a.321.321 0 0 0-.321-.321h-7.503a.32.32 0 0 1-.321-.321v-9.797c0-.131.082-.248.204-.295 8.018-3.122 12.497-9.324 13.675-18.918.065-.533.505-.548.51-.548h10.015c.177 0 .321.144.321.321v17.22a.32.32 0 0 0 .321.32h12.467a.32.32 0 0 1 .32.322v11.375a.32.32 0 0 1-.32.321h-12.52a.32.32 0 0 0-.322.321v20.439c.075 4.602 2.301 6.935 6.62 6.935 1.74 0 3.734-.405 5.554-1.1a.317.317 0 0 1 .416.194l3.185 9.44c.04.12.012.252-.08.338z"/></svg>
