<?xml version="1.0" encoding="UTF-8" standalone="no"?>
<svg
   xmlns:dc="http://purl.org/dc/elements/1.1/"
   xmlns:cc="http://creativecommons.org/ns#"
   xmlns:rdf="http://www.w3.org/1999/02/22-rdf-syntax-ns#"
   xmlns:svg="http://www.w3.org/2000/svg"
   xmlns="http://www.w3.org/2000/svg"
   height="128"
   width="128"
   id="svg12"
   xml:space="preserve"
   enable-background="new 0 0 100 100"
   viewBox="0 0 128 128"
   y="0px"
   x="0px"
   version="1.1"><metadata
     id="metadata18"><rdf:RDF><cc:Work
         rdf:about=""><dc:format>image/svg+xml</dc:format><dc:type
           rdf:resource="http://purl.org/dc/dcmitype/StillImage" /><dc:title></dc:title></cc:Work></rdf:RDF></metadata><defs
     id="defs16" /><g
     transform="translate(13.999875,14.000375)"
     id="g10"><g
       id="g4"><path
         id="path2"
         d="M 75.394,58.138 88.067,45.463 c 9.245,-9.243 9.245,-24.286 0,-33.529 -9.244,-9.246 -24.286,-9.246 -33.53,0 L 36.248,30.223 c -9.245,9.243 -9.245,24.286 0,33.529 1.365,1.366 2.859,2.524 4.44,3.486 l 9.791,-9.792 C 48.614,57 46.845,56.059 45.393,54.608 c -4.202,-4.202 -4.202,-11.04 0,-15.241 L 63.682,21.078 c 4.202,-4.202 11.04,-4.202 15.241,0 4.202,4.202 4.202,11.039 0,15.241 l -5.373,5.374 c 2.214,5.211 2.826,10.942 1.844,16.445 z" /></g><g
       id="g8"><path
         id="path6"
         d="M 24.607,41.862 11.934,54.536 c -9.246,9.244 -9.246,24.286 0,33.53 9.243,9.245 24.286,9.245 33.53,0 L 63.752,69.777 c 9.245,-9.244 9.244,-24.286 0,-33.529 -1.364,-1.366 -2.858,-2.524 -4.439,-3.486 l -9.791,9.792 c 1.864,0.447 3.633,1.386 5.086,2.838 4.202,4.202 4.202,11.039 0,15.241 l -18.29,18.289 c -4.202,4.202 -11.039,4.202 -15.241,0 -4.202,-4.202 -4.202,-11.039 0,-15.241 l 5.374,-5.373 C 24.236,53.097 23.624,47.365 24.607,41.862 Z" /></g></g></svg>