<?xml version="1.0" encoding="UTF-8" standalone="no"?>
<svg
   xmlns="http://www.w3.org/2000/svg"
   xml:space="preserve"
   viewBox="0 0 512 512"
   version="1.1"
   id="Layer_1">
   <defs
     id="defs12" /><g
     id="g5727"><path
       id="Digg_2_"
       d="m 127.11085,113.77626 v 71.11438 H 56.000155 v 3.01853 33.53649 68.35718 l 0,0 v 37.30653 l 0,0 0,0 h 41.6569 l 0,0 h 28.165895 l 0,0 h 41.28919 V 222.19717 182.7574 113.775 h -40.0013 z M 95.998955,291.55719 v -71.11312 h 31.111895 v 71.11312 H 95.998955 z M 175.99885,184.89064 h 40.0013 v 142.21999 h -40.0013 V 184.89064 z m 0,-71.11438 h 40.0013 v 40.00496 h -40.0013 v -40.00496 z m 164.4463,71.11438 0,0 h -106.6677 v 37.30653 l 0,0 v 104.9122 h 66.6654 v 31.11318 h -66.6654 v 40.0012 h 66.7028 39.9649 V 328.76995 288.5099 184.89064 l 0,0 z m -66.6652,106.66655 v -71.11312 h 26.6641 v 71.11312 h -26.6641 z m 182.2199,-106.66655 h -106.6653 l 0,0 0,0 v 104.91345 37.30654 h 71.1081 v 31.11316 h -71.1081 V 398.225 h 69.9727 36.6926 v -42.64586 -26.33777 -39.43602 -67.60568 l 0,0 v -37.30903 z m -35.55601,106.66655 h -31.11189 v -71.11312 h 31.11189 v 71.11312 z" /></g></svg>