<?xml version="1.0" encoding="UTF-8" standalone="no"?>
<svg
   xmlns="http://www.w3.org/2000/svg"
   id="svg10"
   version="1.1"
   viewBox="0 0 128 128">
  
  <defs
     id="defs14" />
  <g
     id="g8"
     >
    <path
       id="path4"
       d="M58.74 50.515a4.472 4.472 0 0 0-4.467-4.467 4.47 4.47 0 0 0-4.464 4.467 4.47 4.47 0 0 0 4.464 4.465 4.471 4.471 0 0 0 4.467-4.465zM73.722 46.046a4.473 4.473 0 0 0-4.468 4.469 4.472 4.472 0 0 0 4.468 4.467 4.473 4.473 0 0 0 4.47-4.467 4.474 4.474 0 0 0-4.47-4.469zM72.66 61.446C70.974 63.13 68.116 63.95 64 63.95c-4.118 0-6.974-.82-8.658-2.503a1.24 1.24 0 1 0-1.754 1.754c2.173 2.173 5.602 3.23 10.412 3.23 4.808 0 8.238-1.057 10.414-3.23a1.24 1.24 0 1 0-1.753-1.755z" />
    <path
       id="path6"
       d="M96.259 45.649c0-4.045-3.29-7.335-7.334-7.335-1.866 0-3.57.703-4.865 1.855-4.976-3.205-11.41-5.08-18.298-5.354l3.78-11.954 10.284 2.42a6.049 6.049 0 0 0 6.041 6.008 6.053 6.053 0 0 0 6.047-6.044 6.053 6.053 0 0 0-6.047-6.045 6.052 6.052 0 0 0-5.547 3.65l-11.329-2.667a1.24 1.24 0 0 0-1.468.833l-4.356 13.773c-7.237.135-14.03 2.03-19.227 5.38a7.298 7.298 0 0 0-4.865-1.855c-4.044 0-7.335 3.29-7.335 7.335a7.335 7.335 0 0 0 3.582 6.297c-.11.687-.166 1.383-.166 2.084 0 5.245 3.071 10.137 8.648 13.778 1.774 1.158 3.74 2.141 5.846 2.946-4.112 1.96-7.023 6.732-7.023 12.295 0 6.284 3.715 11.556 8.68 12.909.387 1.21.818 2.361 1.288 3.446a9.539 9.539 0 0 0-.693-.028c-4.464 0-8.094 3.049-8.094 6.796 0 .56.098 1.14.303 1.77a1.24 1.24 0 0 0 1.18.858h37.234c.544 0 1.024-.353 1.185-.871.202-.65.296-1.207.296-1.757 0-3.747-3.633-6.796-8.099-6.796-.167 0-.333.005-.497.014.468-1.08.897-2.228 1.282-3.431 4.965-1.353 8.68-6.626 8.68-12.91 0-5.563-2.911-10.335-7.023-12.296 2.105-.804 4.072-1.788 5.845-2.945 5.577-3.64 8.649-8.533 8.649-13.778 0-.701-.057-1.397-.165-2.084a7.336 7.336 0 0 0 3.58-6.297zm-6.826-20.404c0 1.964-1.6 3.563-3.566 3.563a3.566 3.566 0 0 1-3.561-3.563 3.567 3.567 0 0 1 3.561-3.564c1.966 0 3.566 1.599 3.566 3.564zm-7.908 80.927c0 .048-.002.097-.005.147H71.01c1.117-1.153 2.145-2.576 3.066-4.22a7.093 7.093 0 0 1 1.831-.242c3.098 0 5.618 1.936 5.618 4.315zm-29.623-4.315c.725 0 1.417.107 2.053.3.913 1.62 1.929 3.023 3.032 4.162H46.293a2.446 2.446 0 0 1-.005-.147c0-2.379 2.519-4.315 5.614-4.315zm15.167 4.462h-6.141c-5.516-3.157-9.49-14.165-9.49-26.407 0-2.892.222-5.694.627-8.335 3.699 1.117 7.749 1.708 11.934 1.708s8.235-.592 11.937-1.709a55.26 55.26 0 0 1 .625 8.336c0 12.241-3.975 23.25-9.492 26.407zM49.257 73.883a60.622 60.622 0 0 0-.3 6.03c0 4.65.54 9.099 1.513 13.073-3.146-1.625-5.362-5.465-5.362-9.937 0-3.871 1.663-7.268 4.149-9.166zm28.272 19.104c.974-3.975 1.513-8.424 1.513-13.075 0-2.072-.105-4.086-.3-6.03 2.487 1.898 4.15 5.296 4.15 9.167 0 4.471-2.217 8.313-5.363 9.938zM64 70.805c-14.536 0-26.361-7.525-26.361-16.775 0-9.249 11.825-16.773 26.361-16.773 14.536 0 26.363 7.524 26.363 16.773 0 9.25-11.827 16.775-26.363 16.775zm-24.924-30.01c1.028 0 1.983.323 2.768.87-2.833 2.256-4.82 4.887-5.856 7.722a4.84 4.84 0 0 1-1.765-3.738 4.86 4.86 0 0 1 4.853-4.854zm47.081.871a4.816 4.816 0 0 1 2.769-.871 4.86 4.86 0 0 1 4.853 4.854c0 1.504-.69 2.848-1.766 3.738-1.036-2.835-3.023-5.465-5.856-7.72z" />
  </g>
</svg>
