<?xml version="1.0" encoding="UTF-8" standalone="no"?>
<svg
   xmlns="http://www.w3.org/2000/svg"
   id="svg10"
   version="1.1"
   viewBox="0 0 128 128">
  
  <defs
     id="defs14" />
  <g
     id="g8"
     >
    <path
       id="path4"
       d="M28.16 100.013l5.064-18.495a35.622 35.622 0 0 1-4.765-17.842c.008-19.679 16.018-35.689 35.69-35.689 9.548.004 18.51 3.721 25.247 10.468 6.739 6.745 10.448 15.712 10.444 25.25-.008 19.677-16.02 35.689-35.69 35.689 0 0 .001 0 0 0h-.015a35.652 35.652 0 0 1-17.055-4.345l-18.92 4.964zm19.796-11.425l1.084.643a29.622 29.622 0 0 0 15.098 4.135h.012c16.35 0 29.658-13.307 29.664-29.665.003-7.926-3.08-15.379-8.68-20.986-5.6-5.607-13.049-8.696-20.972-8.7-16.363 0-29.67 13.307-29.677 29.663a29.583 29.583 0 0 0 4.535 15.786l.706 1.123-2.996 10.946 11.226-2.945z" />
    <path
       id="path6"
       d="M82.13 72.19c-.223-.372-.816-.594-1.708-1.042-.893-.446-5.277-2.603-6.094-2.9-.817-.298-1.412-.447-2.007.445-.594.894-2.303 2.903-2.823 3.497-.52.595-1.041.67-1.933.224-.891-.446-3.764-1.389-7.17-4.427-2.652-2.364-4.442-5.285-4.961-6.177-.52-.893-.056-1.375.39-1.82.402-.4.892-1.042 1.338-1.562.445-.52.594-.894.892-1.489.297-.594.148-1.116-.075-1.562-.223-.446-2.006-4.836-2.75-6.621-.723-1.738-1.459-1.503-2.005-1.531a36.387 36.387 0 0 0-1.71-.032c-.594 0-1.56.224-2.378 1.117-.818.892-3.121 3.05-3.121 7.439 0 4.39 3.195 8.63 3.641 9.225.446.595 6.288 9.603 15.235 13.465a51.182 51.182 0 0 0 5.084 1.88c2.135.678 4.08.582 5.616.353 1.714-.257 5.276-2.157 6.02-4.24.742-2.084.742-3.87.52-4.242z"
       clip-rule="evenodd"
       fill-rule="evenodd" />
  </g>
</svg>
